<?xml version="1.0" encoding="UTF-8" standalone="no"?>
<!-- Created with Inkscape (http://www.inkscape.org/) -->

<svg
   xmlns:dc="http://purl.org/dc/elements/1.1/"
   xmlns:cc="http://creativecommons.org/ns#"
   xmlns:rdf="http://www.w3.org/1999/02/22-rdf-syntax-ns#"
   xmlns:svg="http://www.w3.org/2000/svg"
   xmlns="http://www.w3.org/2000/svg"
   xmlns:sodipodi="http://sodipodi.sourceforge.net/DTD/sodipodi-0.dtd"
   xmlns:inkscape="http://www.inkscape.org/namespaces/inkscape"
   width="50mm"
   height="10mm"
   viewBox="0 0 50 10"
   version="1.1"
   id="svg268"
   inkscape:version="0.92.4 (5da689c313, 2019-01-14)"
   sodipodi:docname="apexion_logo.svg">
  <defs
     id="defs262" />
  <sodipodi:namedview
     id="base"
     pagecolor="#ffffff"
     bordercolor="#666666"
     borderopacity="1.0"
     inkscape:pageopacity="0.0"
     inkscape:pageshadow="2"
     inkscape:zoom="3.959798"
     inkscape:cx="100.39461"
     inkscape:cy="15.590062"
     inkscape:document-units="mm"
     inkscape:current-layer="layer1"
     showgrid="false"
     showguides="true"
     inkscape:guide-bbox="true"
     inkscape:window-width="1366"
     inkscape:window-height="713"
     inkscape:window-x="0"
     inkscape:window-y="0"
     inkscape:window-maximized="1">
    <sodipodi:guide
       position="69.057007,239.20654"
       orientation="0,1"
       id="guide288"
       inkscape:locked="false" />
    <sodipodi:guide
       position="85.726701,245.75433"
       orientation="0,1"
       id="guide4798"
       inkscape:locked="false" />
  </sodipodi:namedview>
  <metadata
     id="metadata265">
    <rdf:RDF>
      <cc:Work
         rdf:about="">
        <dc:format>image/svg+xml</dc:format>
        <dc:type
           rdf:resource="http://purl.org/dc/dcmitype/StillImage" />
        <dc:title />
      </cc:Work>
    </rdf:RDF>
  </metadata>
  <g
     inkscape:label="Layer 1"
     inkscape:groupmode="layer"
     id="layer1"
     transform="translate(0,-287)">
    <g
       id="g4816"
       transform="matrix(1.192902,0,0,1.192902,-50.135728,226.38862)"
       style="fill:#ffffff">
      <path
         id="path7"
         style="fill:#ffffff;fill-rule:evenodd;stroke-width:0.26458332"
         d="m 42.23287,57.57341 0.112156,-0.264134 0.210688,-0.476885 0.16764,-0.409733 0.193913,-0.521944 0.167693,-0.458047 0.14568,-0.435954 0.134196,-0.401399 0.12573,-0.415079 0.125757,-0.433917 0.119539,-0.496755 h 0.955807 l 0.05654,0.232701 0.208571,0.696965 0.04405,0.191745 0.08697,0.22434 0.322845,0.917019 0.194918,0.496809 0.174996,0.427565 0.201215,0.434949 0.207592,0.433917 0.244184,0.477891 H 45.56569 L 45.0878,56.391172 h -1.829938 l -0.509323,1.402292 h -0.609996 z m 1.163372,-1.622452 h 1.534319 l -0.767159,-2.093966 z m 4.069371,-1.578371 0.439129,-0.03141 c 0.303927,0 0.578512,0.03879 0.822696,0.116362 0.244184,0.07755 0.483182,0.224235 0.716888,0.440108 0.233733,0.215954 0.351155,0.592165 0.351155,1.128793 0,0.540808 -0.133112,0.970544 -0.399335,1.289129 -0.266198,0.318638 -0.62992,0.477891 -1.091063,0.477891 l -0.282971,-0.01884 c -0.07549,0 -0.155073,-0.01148 -0.238919,-0.03461 -0.08385,-0.02304 -0.190738,-0.05972 -0.320755,-0.109987 v 1.201076 h -0.660267 c 0,-0.146764 0.0074,-0.264134 0.02204,-0.352161 l 0.0304,-0.446484 0.02932,-0.251566 V 57.40989 l 0.02513,-0.383593 V 56.64273 l -0.02513,-0.559673 -0.03458,-0.622565 -0.02934,-0.584782 -0.01783,-0.188648 v -0.138403 c 0.258842,-0.08385 0.480007,-0.142478 0.663442,-0.17608 z m -0.02831,2.880068 0.257836,0.05662 0.182378,0.01257 0.17608,0.02514 0.188648,0.0063 c 0.64561,0 0.968375,-0.446432 0.968375,-1.339401 0,-0.461142 -0.08697,-0.797559 -0.26096,-1.009253 -0.173962,-0.211746 -0.455929,-0.317553 -0.845792,-0.317553 -0.0671,0 -0.139409,0.0021 -0.216959,0.0063 -0.07757,0.0042 -0.160337,0.01257 -0.24839,0.02514 l -0.201216,0.0377 z m 5.518838,-2.439856 c -0.07967,-0.02514 -0.14777,-0.04397 -0.204338,-0.05662 -0.05662,-0.01257 -0.137292,-0.02823 -0.242147,-0.04718 -0.104801,-0.01884 -0.179202,-0.02931 -0.223176,-0.03141 -0.04405,-0.0021 -0.07866,-0.0032 -0.103796,-0.0032 -0.171899,0 -0.340598,0.03249 -0.5062,0.0975 -0.16563,0.06501 -0.288264,0.144675 -0.36793,0.238998 -0.07959,0.09432 -0.138298,0.201216 -0.176001,0.320649 -0.03776,0.119459 -0.05662,0.263128 -0.05662,0.430742 h 1.798453 v 0.345889 h -1.823588 v 0.09432 c 0,0.34798 0.06911,0.606822 0.207513,0.776632 0.138297,0.169783 0.309165,0.29972 0.512498,0.389863 0.203305,0.09012 0.403516,0.135202 0.600524,0.135202 0.230532,0 0.47162,-0.06705 0.723186,-0.201215 l 0.06289,0.320728 c -0.04196,0.02096 -0.115331,0.05236 -0.220133,0.09427 -0.104801,0.04196 -0.182351,0.07027 -0.232622,0.08493 -0.05035,0.01466 -0.10488,0.02622 -0.163512,0.03458 -0.05874,0.0084 -0.127926,0.01257 -0.207566,0.01257 -0.532368,0 -0.978852,-0.17399 -1.3394,-0.521944 -0.360548,-0.347898 -0.540808,-0.777635 -0.540808,-1.289127 0,-0.5198 0.155125,-0.931677 0.465322,-1.235684 0.310277,-0.3039 0.733664,-0.455877 1.270291,-0.455877 0.155126,0 0.281888,0.0063 0.380471,0.01887 0.09851,0.01257 0.246274,0.04614 0.44331,0.100595 z m 1.695503,1.207374 -0.955808,-1.628721 h 0.6477 l 0.682308,1.188507 0.713713,-1.188507 h 0.578512 l -0.955807,1.609857 1.163293,1.792155 -0.717894,0.0011 -0.879316,-1.365594 -0.826902,1.362419 -0.57539,0.0021 z m 2.401887,1.383426 0.01683,-0.339591 v -0.326947 l 0.01884,-0.345889 v -0.383567 -0.34589 l -0.01884,-0.314378 v -0.295539 l -0.01894,-0.308187 -0.01884,-0.352159 h 0.666617 l -0.0063,0.213862 -0.01148,0.138297 -0.04506,0.22643 v 0.08176 0.295539 l -0.0063,0.282972 v 0.03141 0.34589 0.383566 l 0.0063,0.34589 v 0.326946 l 0.02831,0.339593 0.02823,0.389863 h -0.672835 z m -0.04609,-3.63466 c 0,-0.09641 0.03461,-0.180261 0.103796,-0.25154 0.07019,-0.07128 0.152955,-0.106891 0.251486,-0.106891 0.0975,0 0.179255,0.03561 0.245269,0.106891 0.06919,0.06284 0.10369,0.144648 0.10369,0.24519 0,0.09649 -0.0345,0.18034 -0.10369,0.251566 -0.07022,0.07128 -0.153061,0.106891 -0.251566,0.106891 h -0.04926 c -0.08176,-0.01257 -0.15195,-0.05236 -0.210661,-0.119459 -0.05974,-0.0671 -0.08906,-0.144595 -0.08906,-0.232648 z m 9.718622,3.62839 0.01048,-0.352161 v -0.333241 -0.238999 -0.113162 -0.389863 -0.320756 -0.28088 -0.209577 -0.05765 l -0.01048,-0.274585 -0.01048,-0.114273 -0.01045,-0.194918 c 0.377296,-0.07128 0.691595,-0.123058 0.94324,-0.150946 0.125597,-0.01394 0.243178,-0.02304 0.35216,-0.03143 0.108982,-0.0084 0.209577,-0.01257 0.30181,-0.01257 0.07549,0 0.145759,0 0.210688,0 0.06498,0 0.123716,0.0043 0.176077,0.01257 0.05236,0.0084 0.151953,0.03561 0.298718,0.08178 0.159332,0.03768 0.285062,0.106866 0.377295,0.207487 0.09223,0.08803 0.169784,0.228441 0.23262,0.42127 l 0.06919,0.327052 c 0.02513,0.113162 0.03778,0.224312 0.03778,0.333295 0.02513,0.238918 0.0377,0.542978 0.0377,0.911833 v 0.603648 0.572213 h -0.685402 v -1.34567 -0.257837 -0.352161 c 0,-0.192828 -0.02313,-0.370998 -0.06919,-0.534536 -0.03879,-0.176081 -0.136499,-0.318347 -0.29554,-0.427541 -0.158378,-0.10877 -0.349063,-0.163539 -0.573324,-0.163539 -0.177086,0 -0.424445,0.04927 -0.740992,0.148854 v 0.249396 0.223257 l -0.02514,0.211745 v 0.292364 0.201217 0.383645 0.226351 l 0.02514,0.968375 v 0.17608 h -0.672836 z"
         inkscape:connector-curvature="0" />
      <path
         id="path9"
         style="fill:#ffffff;fill-rule:evenodd;stroke-width:0.26458332"
         d="m 63.832209,55.359561 c 0.183303,0 0.332793,0.149491 0.332793,0.332793 0,0.158195 -0.11139,0.291148 -0.259715,0.324617 -0.388885,1.034203 -1.388851,1.773477 -2.55614,1.773477 -1.165939,0 -2.165006,-0.737606 -2.554816,-1.769958 -0.157216,-0.02638 -0.27768,-0.163617 -0.27768,-0.328136 0,-0.183302 0.149489,-0.332793 0.332792,-0.332793 0.183277,0 0.332793,0.149491 0.332793,0.332793 0,0.109008 -0.05286,0.206031 -0.134302,0.26678 0.36068,0.918977 1.256956,1.57263 2.301213,1.57263 1.040739,0 1.934634,-0.649234 2.297669,-1.563344 -0.08879,-0.05985 -0.1474,-0.161343 -0.1474,-0.276066 0,-0.183302 0.14949,-0.332793 0.332793,-0.332793 z"
         inkscape:connector-curvature="0" />
      <path
         id="path11"
         style="fill:#ffffff;fill-rule:evenodd;stroke-width:0.26458332"
         d="m 61.73909,51.692171 c 0,-0.183303 -0.149489,-0.332793 -0.332793,-0.332793 -0.158194,0 -0.291174,0.11139 -0.324617,0.259742 -1.03423,0.388858 -1.773475,1.388824 -1.773475,2.556114 0,1.165938 0.737578,2.165006 1.76993,2.554816 0.0264,0.157215 0.163618,0.27768 0.328162,0.27768 0.183304,0 0.332793,-0.149489 0.332793,-0.332792 0,-0.183278 -0.149489,-0.332767 -0.332793,-0.332767 -0.109034,0 -0.206057,0.05284 -0.266805,0.134277 -0.918951,-0.36068 -1.572631,-1.256956 -1.572631,-2.301214 0,-1.04074 0.649235,-1.934634 1.563344,-2.297669 0.05987,0.08879 0.161343,0.147399 0.276092,0.147399 0.183304,0 0.332793,-0.149489 0.332793,-0.332793 z"
         inkscape:connector-curvature="0" />
      <path
         id="path13"
         style="fill:#ffffff;fill-rule:evenodd;stroke-width:0.26458332"
         d="m 60.647181,54.423571 c -0.183303,0 -0.332793,-0.14949 -0.332793,-0.332792 0,-0.158195 0.11139,-0.291148 0.259742,-0.324618 0.388858,-1.03423 1.388851,-1.773476 2.556113,-1.773476 1.165966,0 2.165006,0.737579 2.554817,1.76993 0.157215,0.02641 0.277706,0.163619 0.277706,0.328164 0,0.183302 -0.149489,0.332792 -0.332793,0.332792 -0.183303,0 -0.332793,-0.14949 -0.332793,-0.332792 0,-0.109036 0.05284,-0.206058 0.134277,-0.266807 -0.36068,-0.918951 -1.25693,-1.57263 -2.301214,-1.57263 -1.040712,0 -1.934633,0.649234 -2.297668,1.563343 0.08879,0.05988 0.147399,0.161343 0.147399,0.276094 0,0.183302 -0.149489,0.332792 -0.332793,0.332792 z"
         inkscape:connector-curvature="0" />
      <path
         id="path15"
         style="fill:#ffffff;fill-rule:evenodd;stroke-width:0.26458332"
         d="m 62.740327,58.090935 c 0,0.183302 0.149489,0.332793 0.332792,0.332793 0.158195,0 0.291148,-0.111391 0.324618,-0.259715 1.034203,-0.388886 1.773475,-1.388852 1.773475,-2.556141 0,-1.165938 -0.737579,-2.165006 -1.76993,-2.55479 -0.02641,-0.157215 -0.163645,-0.277706 -0.328163,-0.277706 -0.183303,0 -0.332792,0.149489 -0.332792,0.332792 0,0.183304 0.149489,0.332793 0.332792,0.332793 0.109009,0 0.206032,-0.05286 0.26678,-0.134302 0.918977,0.36068 1.57263,1.256956 1.57263,2.301213 0,1.040739 -0.649234,1.934635 -1.563317,2.297696 -0.05987,-0.08882 -0.161343,-0.1474 -0.276093,-0.1474 -0.183303,0 -0.332792,0.149489 -0.332792,0.332767 z"
         inkscape:connector-curvature="0" />
      <g
         id="text286"
         style="font-style:normal;font-weight:normal;font-size:7.71506214px;line-height:1.25;font-family:sans-serif;letter-spacing:0px;word-spacing:0px;fill:#ffffff;fill-opacity:1;stroke:none;stroke-width:0.19287656"
         transform="scale(0.87255963,1.1460535)"
         aria-label="ERP">
        <path
           id="path4800"
           style="font-style:normal;font-variant:normal;font-weight:bold;font-stretch:normal;font-family:sans-serif;-inkscape-font-specification:'sans-serif Bold';fill:#ffffff;fill-opacity:1;stroke-width:0.19287656"
           d="m 80.088651,44.799441 h 3.914038 v 1.096232 h -2.463697 v 1.04726 h 2.316779 v 1.096232 h -2.316779 v 1.288355 h 2.546573 v 1.096232 h -3.996914 z"
           inkscape:connector-curvature="0" />
        <path
           id="path4802"
           style="font-style:normal;font-variant:normal;font-weight:bold;font-stretch:normal;font-family:sans-serif;-inkscape-font-specification:'sans-serif Bold';fill:#ffffff;fill-opacity:1;stroke-width:0.19287656"
           d="m 87.423234,47.293275 q 0.455821,0 0.651711,-0.16952 0.199658,-0.169521 0.199658,-0.557534 0,-0.384246 -0.199658,-0.55 -0.19589,-0.165753 -0.651711,-0.165753 H 86.81296 v 1.442807 z m -0.610274,1.002054 v 2.128423 h -1.450341 v -5.624311 h 2.215067 q 1.1113,0 1.627396,0.372945 0.519862,0.372945 0.519862,1.179109 0,0.557534 -0.271233,0.91541 -0.267465,0.357877 -0.80993,0.527397 0.297602,0.06781 0.531164,0.308904 0.237328,0.237328 0.478424,0.723287 l 0.787328,1.597259 H 88.896178 L 88.210562,49.02615 Q 88.00337,48.604233 87.788644,48.449781 87.577686,48.295329 87.223576,48.295329 Z"
           inkscape:connector-curvature="0" />
        <path
           id="path4804"
           style="font-style:normal;font-variant:normal;font-weight:bold;font-stretch:normal;font-family:sans-serif;-inkscape-font-specification:'sans-serif Bold';fill:#ffffff;fill-opacity:1;stroke-width:0.19287656"
           d="m 91.2996,44.799441 h 2.407189 q 1.07363,0 1.646232,0.478425 0.576369,0.474657 0.576369,1.356163 0,0.885273 -0.576369,1.363697 -0.572602,0.474658 -1.646232,0.474658 h -0.956848 v 1.951368 H 91.2996 Z m 1.450341,1.051027 v 1.570889 h 0.802397 q 0.421917,0 0.651711,-0.203424 0.229795,-0.207192 0.229795,-0.583904 0,-0.376712 -0.229795,-0.580137 -0.229794,-0.203424 -0.651711,-0.203424 z"
           inkscape:connector-curvature="0" />
      </g>
    </g>
  </g>
</svg>
